<svg xmlns="http://www.w3.org/2000/svg" xmlns:xlink="http://www.w3.org/1999/xlink" contentStyleType="text/css" data-diagram-type="ACTIVITY" height="562px" preserveAspectRatio="none" style="width:590px;height:562px;background:#FFFFFF;" version="1.1" viewBox="0 0 590 562" width="590px" zoomAndPan="magnify"><title>ComponentHub - Workflow Diagram</title><defs/><g><g class="title" data-source-line="1"><text fill="#000000" font-family="sans-serif" font-size="14" font-weight="bold" lengthAdjust="spacing" textLength="283.9238" x="151.6973" y="32.9951">ComponentHub - Workflow Diagram</text></g><ellipse cx="251.7017" cy="57.2969" fill="#222222" rx="10" ry="10" style="stroke:#222222;stroke-width:1;"/><rect fill="#F1F1F1" height="33.9688" rx="12.5" ry="12.5" style="stroke:#181818;stroke-width:0.5;" width="69.9453" x="216.729" y="87.2969"/><text fill="#000000" font-family="sans-serif" font-size="12" lengthAdjust="spacing" textLength="49.9453" x="226.729" y="108.4355">Register</text><polygon fill="#F1F1F1" points="219.8135,141.2656,283.5898,141.2656,295.5898,153.2656,283.5898,165.2656,219.8135,165.2656,207.8135,153.2656,219.8135,141.2656" style="stroke:#181818;stroke-width:0.5;"/><text fill="#000000" font-family="sans-serif" font-size="11" lengthAdjust="spacing" textLength="63.7764" x="219.8135" y="157.0737">Login type?</text><text fill="#000000" font-family="sans-serif" font-size="11" lengthAdjust="spacing" textLength="25.0723" x="182.7412" y="150.6714">User</text><text fill="#000000" font-family="sans-serif" font-size="11" lengthAdjust="spacing" textLength="35.2505" x="295.5898" y="150.6714">Admin</text><rect fill="#F1F1F1" height="33.9688" rx="12.5" ry="12.5" style="stroke:#181818;stroke-width:0.5;" width="83.75" x="62.7471" y="175.2656"/><text fill="#000000" font-family="sans-serif" font-size="12" lengthAdjust="spacing" textLength="63.75" x="72.7471" y="196.4043">User Login</text><rect fill="#F1F1F1" height="33.9688" rx="12.5" ry="12.5" style="stroke:#181818;stroke-width:0.5;" width="167.9961" x="20.624" y="229.2344"/><text fill="#000000" font-family="sans-serif" font-size="12" lengthAdjust="spacing" textLength="147.9961" x="30.624" y="250.373">Upload Component Data</text><rect fill="#F1F1F1" height="33.9688" rx="12.5" ry="12.5" style="stroke:#181818;stroke-width:0.5;" width="187.2441" x="11" y="283.2031"/><text fill="#000000" font-family="sans-serif" font-size="12" lengthAdjust="spacing" textLength="167.2441" x="21" y="304.3418">Check Analysis &amp; Prediction</text><rect fill="#F1F1F1" height="33.9688" rx="12.5" ry="12.5" style="stroke:#181818;stroke-width:0.5;" width="154.1152" x="27.5645" y="337.1719"/><text fill="#000000" font-family="sans-serif" font-size="12" lengthAdjust="spacing" textLength="134.1152" x="37.5645" y="358.3105">View Graphical Report</text><rect fill="#F1F1F1" height="33.9688" rx="12.5" ry="12.5" style="stroke:#181818;stroke-width:0.5;" width="94.8535" x="351.3545" y="175.2656"/><text fill="#000000" font-family="sans-serif" font-size="12" lengthAdjust="spacing" textLength="74.8535" x="361.3545" y="196.4043">Admin Login</text><rect fill="#F1F1F1" height="33.9688" rx="12.5" ry="12.5" style="stroke:#181818;stroke-width:0.5;" width="228.6523" x="284.4551" y="229.2344"/><text fill="#000000" font-family="sans-serif" font-size="12" lengthAdjust="spacing" textLength="208.6523" x="294.4551" y="250.373">Upload Component File for Testing</text><rect fill="#F1F1F1" height="33.9688" rx="12.5" ry="12.5" style="stroke:#181818;stroke-width:0.5;" width="257.8262" x="269.8682" y="283.2031"/><text fill="#000000" font-family="sans-serif" font-size="12" lengthAdjust="spacing" textLength="237.8262" x="279.8682" y="304.3418">Upload Component File for Deployment</text><rect fill="#F1F1F1" height="33.9688" rx="12.5" ry="12.5" style="stroke:#181818;stroke-width:0.5;" width="361.0742" x="218.2441" y="337.1719"/><text fill="#000000" font-family="sans-serif" font-size="12" lengthAdjust="spacing" textLength="341.0742" x="228.2441" y="358.3105">Upload Component File for Performance &amp; Error Analysis</text><rect fill="#F1F1F1" height="33.9688" rx="12.5" ry="12.5" style="stroke:#181818;stroke-width:0.5;" width="160.3672" x="318.5977" y="391.1406"/><text fill="#000000" font-family="sans-serif" font-size="12" lengthAdjust="spacing" textLength="140.3672" x="328.5977" y="412.2793">View Graphical Reports</text><polygon fill="#F1F1F1" points="251.7017,431.1094,263.7017,443.1094,251.7017,455.1094,239.7017,443.1094,251.7017,431.1094" style="stroke:#181818;stroke-width:0.5;"/><rect fill="#F1F1F1" height="33.9688" rx="12.5" ry="12.5" style="stroke:#181818;stroke-width:0.5;" width="61.2969" x="221.0532" y="475.1094"/><text fill="#000000" font-family="sans-serif" font-size="12" lengthAdjust="spacing" textLength="41.2969" x="231.0532" y="496.248">Logout</text><ellipse cx="251.7017" cy="540.0781" fill="none" rx="11" ry="11" style="stroke:#222222;stroke-width:1;"/><ellipse cx="251.7017" cy="540.0781" fill="#222222" rx="6" ry="6" style="stroke:#222222;stroke-width:1;"/><line style="stroke:#181818;stroke-width:1;" x1="251.7017" x2="251.7017" y1="67.2969" y2="87.2969"/><polygon fill="#181818" points="247.7017,77.2969,251.7017,87.2969,255.7017,77.2969,251.7017,81.2969" style="stroke:#181818;stroke-width:1;"/><line style="stroke:#181818;stroke-width:1;" x1="104.6221" x2="104.6221" y1="209.2344" y2="229.2344"/><polygon fill="#181818" points="100.6221,219.2344,104.6221,229.2344,108.6221,219.2344,104.6221,223.2344" style="stroke:#181818;stroke-width:1;"/><line style="stroke:#181818;stroke-width:1;" x1="104.6221" x2="104.6221" y1="263.2031" y2="283.2031"/><polygon fill="#181818" points="100.6221,273.2031,104.6221,283.2031,108.6221,273.2031,104.6221,277.2031" style="stroke:#181818;stroke-width:1;"/><line style="stroke:#181818;stroke-width:1;" x1="104.6221" x2="104.6221" y1="317.1719" y2="337.1719"/><polygon fill="#181818" points="100.6221,327.1719,104.6221,337.1719,108.6221,327.1719,104.6221,331.1719" style="stroke:#181818;stroke-width:1;"/><line style="stroke:#181818;stroke-width:1;" x1="398.7813" x2="398.7813" y1="209.2344" y2="229.2344"/><polygon fill="#181818" points="394.7813,219.2344,398.7813,229.2344,402.7813,219.2344,398.7813,223.2344" style="stroke:#181818;stroke-width:1;"/><line style="stroke:#181818;stroke-width:1;" x1="398.7813" x2="398.7813" y1="263.2031" y2="283.2031"/><polygon fill="#181818" points="394.7813,273.2031,398.7813,283.2031,402.7813,273.2031,398.7813,277.2031" style="stroke:#181818;stroke-width:1;"/><line style="stroke:#181818;stroke-width:1;" x1="398.7813" x2="398.7813" y1="317.1719" y2="337.1719"/><polygon fill="#181818" points="394.7813,327.1719,398.7813,337.1719,402.7813,327.1719,398.7813,331.1719" style="stroke:#181818;stroke-width:1;"/><line style="stroke:#181818;stroke-width:1;" x1="398.7813" x2="398.7813" y1="371.1406" y2="391.1406"/><polygon fill="#181818" points="394.7813,381.1406,398.7813,391.1406,402.7813,381.1406,398.7813,385.1406" style="stroke:#181818;stroke-width:1;"/><line style="stroke:#181818;stroke-width:1;" x1="207.8135" x2="104.6221" y1="153.2656" y2="153.2656"/><line style="stroke:#181818;stroke-width:1;" x1="104.6221" x2="104.6221" y1="153.2656" y2="175.2656"/><polygon fill="#181818" points="100.6221,165.2656,104.6221,175.2656,108.6221,165.2656,104.6221,169.2656" style="stroke:#181818;stroke-width:1;"/><line style="stroke:#181818;stroke-width:1;" x1="295.5898" x2="398.7813" y1="153.2656" y2="153.2656"/><line style="stroke:#181818;stroke-width:1;" x1="398.7813" x2="398.7813" y1="153.2656" y2="175.2656"/><polygon fill="#181818" points="394.7813,165.2656,398.7813,175.2656,402.7813,165.2656,398.7813,169.2656" style="stroke:#181818;stroke-width:1;"/><line style="stroke:#181818;stroke-width:1;" x1="104.6221" x2="104.6221" y1="371.1406" y2="443.1094"/><line style="stroke:#181818;stroke-width:1;" x1="104.6221" x2="239.7017" y1="443.1094" y2="443.1094"/><polygon fill="#181818" points="229.7017,439.1094,239.7017,443.1094,229.7017,447.1094,233.7017,443.1094" style="stroke:#181818;stroke-width:1;"/><line style="stroke:#181818;stroke-width:1;" x1="398.7813" x2="398.7813" y1="425.1094" y2="443.1094"/><line style="stroke:#181818;stroke-width:1;" x1="398.7813" x2="263.7017" y1="443.1094" y2="443.1094"/><polygon fill="#181818" points="273.7017,439.1094,263.7017,443.1094,273.7017,447.1094,269.7017,443.1094" style="stroke:#181818;stroke-width:1;"/><line style="stroke:#181818;stroke-width:1;" x1="251.7017" x2="251.7017" y1="121.2656" y2="141.2656"/><polygon fill="#181818" points="247.7017,131.2656,251.7017,141.2656,255.7017,131.2656,251.7017,135.2656" style="stroke:#181818;stroke-width:1;"/><line style="stroke:#181818;stroke-width:1;" x1="251.7017" x2="251.7017" y1="455.1094" y2="475.1094"/><polygon fill="#181818" points="247.7017,465.1094,251.7017,475.1094,255.7017,465.1094,251.7017,469.1094" style="stroke:#181818;stroke-width:1;"/><line style="stroke:#181818;stroke-width:1;" x1="251.7017" x2="251.7017" y1="509.0781" y2="529.0781"/><polygon fill="#181818" points="247.7017,519.0781,251.7017,529.0781,255.7017,519.0781,251.7017,523.0781" style="stroke:#181818;stroke-width:1;"/><!--SRC=[XK-xRiCm3Dpr5PmAP-WFs4CHn7qC7OAWQMVMfcqYaYXG30B_VLGLHQSs4uztHnpFs3p1JaAIID5Upfzm3n-YfydB1Nh6MJ4ubmtLN7kWcREHTixn1Cshp1p1raGF6x258ZJ7JBfn0EqNW6hewfgyuFWR13qQLcMtq722RKI_Pivm1tkbaGTZ-RvyPxh0is9QU40F1qgYrZdocQ3PZe5ZpQlely0dBaKdKNYZR1pd6wwUYhI6mjqmxadB21W7Aiy_gXRkfytV1Of4SUJ9kRRyBEUIaatI5G00]--></g></svg>